<?xml version="1.0" standalone="no"?><!DOCTYPE svg PUBLIC "-//W3C//DTD SVG 1.1//EN" "http://www.w3.org/Graphics/SVG/1.1/DTD/svg11.dtd"><svg t="1607597099693" class="icon" viewBox="0 0 1024 1024" version="1.1" xmlns="http://www.w3.org/2000/svg" p-id="4178" xmlns:xlink="http://www.w3.org/1999/xlink" width="200" height="200"><defs><style type="text/css"></style></defs><path d="M512 0C229.229714 0 0 229.229714 0 512s229.229714 512 512 512 512-229.229714 512-512S794.770286 0 512 0z m274.285714 656.618057V704.365714a21.942857 21.942857 0 0 1-21.942857 21.942857H259.657143a21.942857 21.942857 0 0 1-21.942857-21.942857V319.634286a21.942857 21.942857 0 0 1 21.942857-21.942857h504.685714a21.942857 21.942857 0 0 1 21.942857 21.942857z" fill="#3D3D3D" p-id="4179"></path><path d="M764.342857 726.308571H259.657143a21.942857 21.942857 0 0 1-21.942857-21.942857 21.942857 21.942857 0 0 0 21.942857 21.942857h504.685714a21.942857 21.942857 0 0 0 21.942857-21.942857 21.942857 21.942857 0 0 1-21.942857 21.942857zM764.342857 297.691429H259.657143a21.942857 21.942857 0 0 0-21.942857 21.942857v275.616914c24.693029-69.756343 91.223771-119.727543 169.435428-119.727543 74.920229 0 139.117714 45.860571 166.0928 111.030857A137.618286 137.618286 0 0 1 786.285714 656.618057V319.634286a21.942857 21.942857 0 0 0-21.942857-21.942857zM661.284571 456.023771a48.493714 48.493714 0 1 1 48.574172-48.493714 48.530286 48.530286 0 0 1-48.574172 48.493714z" fill="#6ACC9B" p-id="4180"></path><path d="M612.7104 407.530057a48.574171 48.493714 0 1 0 97.148343 0 48.574171 48.493714 0 1 0-97.148343 0Z" fill="#FFFFFF" p-id="4181"></path><path d="M654.826057 559.754971a136.981943 136.981943 0 0 0-81.583543 26.799543 180.136229 180.136229 0 0 1-1.002057 139.702857H764.342857a21.942857 21.942857 0 0 0 21.942857-21.942857v-47.696457a137.647543 137.647543 0 0 0-131.459657-96.863086z" fill="#73E5A1" p-id="4182"></path><path d="M259.657143 726.308571h312.583314a180.136229 180.136229 0 0 0 1.002057-139.702857c-26.975086-65.170286-91.172571-111.030857-166.0928-111.030857-78.211657 0-144.7424 49.9712-169.435428 119.727543V704.365714a21.942857 21.942857 0 0 0 21.942857 21.942857z" fill="#95EFBA" p-id="4183"></path></svg>