<?xml version="1.0" standalone="no"?><!DOCTYPE svg PUBLIC "-//W3C//DTD SVG 1.1//EN" "http://www.w3.org/Graphics/SVG/1.1/DTD/svg11.dtd"><svg t="1615516766889" class="icon" viewBox="0 0 1024 1024" version="1.1" xmlns="http://www.w3.org/2000/svg" p-id="3931" xmlns:xlink="http://www.w3.org/1999/xlink" width="81" height="81"><defs><style type="text/css"></style></defs><path d="M884.8 363.6c-22.9 0-41.5-18.6-41.5-41.5V220.9c0-21.9-17.8-39.7-39.7-39.7H701.3c-22.9 0-41.5-18.6-41.5-41.5s18.6-41.5 41.5-41.5h102.3c67.6 0 122.7 55 122.7 122.7v101.2c0 22.9-18.6 41.5-41.5 41.5z" fill="#1296db" p-id="3932"></path><path d="M511.9 554.9c-10.6 0-21.2-4.1-29.3-12.2-16.2-16.2-16.2-42.5 0-58.7l349.3-349.3c16.2-16.2 42.5-16.2 58.7 0 16.2 16.2 16.2 42.5 0 58.7L541.2 542.8c-8.1 8.1-18.7 12.1-29.3 12.1z" fill="#1296db" p-id="3933"></path><path d="M511.3 928.2c-228.8 0-415-186.2-415-415s186.2-415 415-415c22.9 0 41.5 18.6 41.5 41.5s-18.6 41.5-41.5 41.5c-183.1 0-332 148.9-332 332s148.9 332 332 332 332-148.9 332-332c0-22.9 18.6-41.5 41.5-41.5s41.5 18.6 41.5 41.5c0 228.8-186.1 415-415 415z" fill="#1296db" p-id="3934"></path></svg>